<?xml version="1.0" standalone="no"?><!DOCTYPE svg PUBLIC "-//W3C//DTD SVG 1.1//EN" "http://www.w3.org/Graphics/SVG/1.1/DTD/svg11.dtd"><svg class="icon" width="200px" height="200.00px" viewBox="0 0 1024 1024" version="1.1" xmlns="http://www.w3.org/2000/svg"><path d="M938.688 322.176c10.816 18.368 16.448 38.912 17.088 61.696v441.856c-1.152 36.16-13.696 66.176-37.632 90.112-23.936 23.936-53.952 36.48-90.112 37.632H187.52c-36.16-1.152-66.24-13.696-90.112-37.632-23.936-23.936-36.48-53.952-37.632-90.112V383.872c0-22.72 5.824-43.328 17.472-61.696 11.648-18.368 27.136-33.984 46.4-46.784l320.256-198.656c19.84-12.8 42.112-19.264 66.944-19.264 24.768 0 47.104 6.4 66.944 19.264l320.256 198.656c16.256 12.8 29.824 28.416 40.64 46.784zM805.248 526.08c-4.672-11.392-16.32-20.288-35.008-26.688-9.92-6.4-20.288-7.424-31.04-3.072-10.816 4.352-19.712 11.84-26.688 22.336l-38.528 89.28-57.728-217.856c-3.52-12.8-10.944-24.64-22.336-35.456-11.392-10.816-25.216-17.92-41.536-21.44-23.36-5.824-44.16-2.496-62.592 10.048-18.368 12.544-29.632 30.464-33.664 53.824l-50.752 274.752-19.264-57.728c-3.52-12.8-9.6-23.616-18.368-32.384s-19.52-14.848-32.384-18.368c-20.416-6.4-40.832-5.12-61.248 3.968-20.416 9.024-34.432 24.64-41.984 46.784l-18.368 63.872c-6.4 13.44-7.168 25.536-2.176 36.288 4.928 10.816 14.144 17.92 27.584 21.44 12.8 6.4 24.64 6.976 35.456 1.728 10.816-5.248 18.24-14.272 22.336-27.136l12.16-44.672 13.12 57.728c6.4 9.344 13.12 17.472 20.096 24.512s15.168 13.696 24.512 20.096c6.4 2.944 12.8 4.672 19.264 5.248 6.4 0.576 12.8 0.896 19.264 0.896 3.52 0 7.744-1.024 12.672-3.072 4.928-2.048 9.216-3.072 12.672-3.072 16.32-6.976 29.312-16.192 38.912-27.584s15.872-23.488 18.816-36.288L546.24 441.6l50.752 204.8c3.52 13.44 8.448 25.536 14.848 36.288 6.4 10.816 14.464 17.92 24.064 21.44s20.288 6.144 31.936 7.872c11.648 1.728 22.336 1.024 31.936-2.176s18.944-8.896 28.032-17.088c9.024-8.192 16.768-17.216 23.168-27.136l50.752-102.4c7.04-13.376 8.192-25.792 3.52-37.12z" fill="#1296db" /></svg>